<?xml version="1.0" standalone="no"?>
<!DOCTYPE svg PUBLIC "-//W3C//DTD SVG 20010904//EN"
 "http://www.w3.org/TR/2001/REC-SVG-20010904/DTD/svg10.dtd">
<svg version="1.0" xmlns="http://www.w3.org/2000/svg"
 width="1024.000000pt" height="1024.000000pt" viewBox="0 0 1024.000000 1024.000000"
 preserveAspectRatio="xMidYMid meet">
<metadata>
Created by potrace 1.14, written by Peter Selinger 2001-2017
</metadata>
<g transform="translate(0.000000,1024.000000) scale(0.100000,-0.100000)"
fill="#000000" stroke="none">
<path d="M0 5120 l0 -5120 5120 0 5120 0 0 5120 0 5120 -5120 0 -5120 0 0
-5120z m5980 3965 l0 -205 198 -2 197 -3 0 -205 0 -205 -192 -3 -193 -2 0
-205 0 -205 63 -1 c34 -1 94 -2 132 -4 39 -1 98 -2 133 -3 l62 -2 0 -210 0
-210 378 -2 377 -3 3 -207 2 -208 338 -2 337 -3 3 -422 2 -423 -345 0 -345 0
0 210 0 210 -179 0 -179 0 -7 -431 -8 -431 -381 7 c-209 4 -382 8 -383 9 0 0
-4 93 -8 206 -4 113 -10 209 -13 214 -2 4 -176 7 -386 5 l-381 -4 -3 428 -2
427 -206 0 -206 0 3 208 3 207 -202 3 -202 2 0 210 0 210 -1180 0 -1180 0 0
210 0 210 1183 -2 1182 -3 3 -202 2 -203 195 0 195 0 1 113 c0 61 2 150 3 197
1 47 3 183 4 303 l2 217 205 0 205 0 0 205 0 205 385 0 385 0 0 -205z m2240
-2955 l0 -210 200 0 200 0 0 -215 0 -215 -200 0 -200 0 -2 -222 -3 -223 -196
-3 -196 -2 -6 106 c-9 137 -9 475 0 877 l6 317 199 0 198 0 0 -210z m-3578
-220 l148 0 -2 -212 -3 -213 -192 2 -193 2 0 -449 0 -449 193 2 192 2 0 -437
0 -438 -400 -2 -400 -3 -3 -187 -2 -188 207 -2 208 -3 3 -202 2 -203 400 0
400 0 0 -191 0 -191 393 7 392 6 1 185 1 185 -151 -1 c-83 -1 -172 -1 -198 0
l-48 0 0 830 0 830 201 0 202 0 -6 -352 c-4 -194 -4 -473 0 -620 l6 -268 188
0 189 0 2 188 3 187 193 3 192 2 0 -195 0 -195 -189 0 -189 0 -7 -400 -7 -400
-189 0 -189 0 0 -176 0 -176 190 4 190 3 0 -192 0 -193 -190 0 -190 0 0 -190
0 -190 190 0 190 0 2 188 3 187 376 3 376 2 6 -37 c4 -21 6 -197 6 -390 l1
-353 -190 0 -190 0 -2 -188 -3 -187 -382 -3 -383 -2 -1 32 c0 18 0 195 1 392
l1 359 -393 -4 -393 -4 -5 195 -5 195 -197 3 -198 2 -2 178 -3 177 -407 3
-408 2 0 580 0 580 -405 0 -405 0 0 -200 0 -200 -378 0 -379 0 -6 294 c-4 161
-4 429 0 595 l6 301 241 1 c549 1 1587 6 1664 7 l82 2 0 225 0 225 -207 2
-208 3 -3 447 -3 448 208 2 208 3 3 214 2 214 47 -7 c25 -3 113 -6 195 -6z
m2126 -490 c2 -36 1 -134 -3 -217 l-7 -153 -194 0 -194 0 0 220 0 220 198 -2
197 -3 3 -65z m-8 -1060 l0 -230 -192 2 -193 3 -3 228 -2 227 195 0 195 0 0
-230z m-3170 -1995 l0 -185 -210 0 -210 0 0 185 0 185 210 0 210 0 0 -185z
m1998 -1517 l-3 -193 -187 -3 -187 -2 -5 32 c-5 25 -1 341 3 356 1 1 87 2 191
2 l190 0 -2 -192z"/>
<path d="M5210 7835 l0 -205 385 -2 385 -3 0 208 0 207 -385 0 -385 0 0 -205z"/>
<path d="M6380 6985 l0 -205 185 0 185 0 0 205 0 205 -185 0 -185 0 0 -205z"/>
</g>
</svg>
